# xmcd
#
# Track frame offsets:
#	150
#	12728
#	22133
#	32685
#	41311
#	51441
#	62331
#	73095
#	84241
#	92113
#	105965
#	117813
#	127951
#	135810
#	145037
#
# Disc length: 2056 seconds
#
# Revision: 1
# Processed by: cddbd v1.5.1PL0 Copyright (c) Steve Scherf et al.
# Submitted via: audiograbber 1.82.02
#
DISCID=bc08060f
DTITLE=Chad Morgan - One Of The Mob
DYEAR=1900
DGENRE=Country
TTITLE0=Morgans Lie
TTITLE1=Poor Chinee
TTITLE2=I Can't Even Do Wrong Right
TTITLE3=Drinking Man
TTITLE4=The Punter's Just A Mug
TTITLE5=All So Nice In The Nut House
TTITLE6=Woolshed Swinger
TTITLE7=Women Do Funny Things To Me
TTITLE8=Just The Same
TTITLE9=One Of The Mob
TTITLE10=The Carter Boys
TTITLE11=Here's To The Ladies
TTITLE12=If I Knew Then
TTITLE13=The Fatal Wedding
TTITLE14=The Thrashing Machine
EXTD=
EXTT0=
EXTT1=
EXTT2=
EXTT3=
EXTT4=
EXTT5=
EXTT6=
EXTT7=
EXTT8=
EXTT9=
EXTT10=
EXTT11=
EXTT12=
EXTT13=
EXTT14=
PLAYORDER=
